# xmcd
#
# Track frame offsets: 
#        150
#        16970
#        37474
#        69489
#        91850
#        104945
#        129931
#        146510
#        159705
#        184147
#        191262
#        272100
#        286835
#        293683
#        315624
#        327110
#
# Disc length: 4594 seconds
#
# Revision: 0
# Processed by: cddbd v1.5.2PL0 Copyright (c) Steve Scherf et al.
# Submitted via: ExactAudioCopy v1.0b1
#
DISCID=ed11f010
DTITLE=Alexander Melik-Pashaev, Bolshoi Theater Orchestra - Tchaikovsk
DTITLE=y edition v. 44 - The Queen of Spades
DYEAR=1952
DGENRE=Opera
TTITLE0=The Queen of Spades, opera   Introduction  Op. 68  TH 010 
TTITLE1=The Queen of Spades, opera   Burn, burn bright (Chorus)  Op. 6
TTITLE1=8  TH 010 
TTITLE2=The Queen of Spades, opera   How did the game end last night? 
TTITLE2=(Scene and Herman's Arioso)  Op. 68  TH 010
TTITLE3=The Queen of Spades, opera   Finally God has sent us a sunny l
TTITLE3=ittle day! (Chorus)  Op. 68  TH 010
TTITLE4=The Queen of Spades, opera   I am frightened (Quintet and Scen
TTITLE4=e)  Op. 68  TH 010 
TTITLE5=The Queen of Spades, opera   What a witch that Countess is! (S
TTITLE5=cene and Tomsky's Ballad)  Op. 68  TH 010 
TTITLE6=The Queen of Spades, opera   Se non e vero, e ben trovato (Fin
TTITLE6=al Scene)  Op. 68  TH 010 
TTITLE7=The Queen of Spades, opera   Evening already (Duet Lisa and Pa
TTITLE7=uline)  Op. 68  TH 010
TTITLE8=The Queen of Spades, opera   Bewitching! Enchanting (Scene, Li
TTITLE8=sa's Romance and Russian Song)  Op. 68  TH 010
TTITLE9=The Queen of Spades, opera   Mesdemoiselles, What's this noise
TTITLE9=? (Scene and Governess' Arioso)  Op. 68  TH 010
TTITLE10=The Queen of Spades, opera   It's time now to be breaking up 
TTITLE10=(Final Scene)  Op. 68  TH 010
TTITLE11=The Queen of Spades, opera   Happily and merrily on this day 
TTITLE11=(Entr'acte and Chorus)  Op. 68  TH 010 
TTITLE12=The Queen of Spades, opera   The master asks his dear guests 
TTITLE12=to come and see  Op. 68  TH 010 
TTITLE13=The Queen of Spades, opera   Stay for one moment (Yeletsky's 
TTITLE13=Aria)  Op. 68  TH 010 
TTITLE14=The Queen of Spades, opera   I would like to see her right no
TTITLE14=w  Op. 68  TH 010
TTITLE15=The Queen of Spades, opera   Under the thick shade near the c
TTITLE15=alm brook (Interlude and Chorus)  Op. 68  TH 010 
EXTD=
EXTT0=
EXTT1=
EXTT2=
EXTT3=
EXTT4=
EXTT5=
EXTT6=
EXTT7=
EXTT8=
EXTT9=
EXTT10=
EXTT11=
EXTT12=
EXTT13=
EXTT14=
EXTT15=
PLAYORDER=
